<svg width="114" height="40" viewBox="0 0 114 40" fill="none" xmlns="http://www.w3.org/2000/svg">
<path d="M0 16.7855H5.2417V18.7344C6.20462 17.7637 7.05882 17.0991 7.80431 16.7407C8.56533 16.3674 9.46612 16.1807 10.5067 16.1807C11.889 16.1807 13.3333 16.6138 14.8398 17.4799L12.4403 22.0944C11.4463 21.4075 10.4756 21.064 9.52825 21.064C6.67055 21.064 5.2417 23.1398 5.2417 27.2913V38.6036H0V16.7855Z" fill="white"/>
<path d="M16.3541 27.5377C16.3541 24.3867 17.5267 21.7062 19.8719 19.496C22.217 17.2858 25.0747 16.1807 28.445 16.1807C31.8307 16.1807 34.7039 17.2933 37.0646 19.5184C39.3943 21.7435 40.5591 24.4763 40.5591 27.7169C40.5591 30.9874 39.3865 33.7277 37.0414 35.9379C34.6806 38.1331 31.7841 39.2308 28.3518 39.2308C24.9505 39.2308 22.1006 38.1107 19.802 35.8707C17.5034 33.6605 16.3541 30.8829 16.3541 27.5377ZM21.7123 27.6273C21.7123 29.8077 22.318 31.5325 23.5294 32.8018C24.7719 34.0861 26.4104 34.7283 28.445 34.7283C30.4951 34.7283 32.1336 34.0936 33.3605 32.8242C34.5875 31.5549 35.2009 29.8599 35.2009 27.7393C35.2009 25.6188 34.5875 23.9238 33.3605 22.6544C32.118 21.3702 30.4795 20.728 28.445 20.728C26.4415 20.728 24.8185 21.3702 23.576 22.6544C22.3335 23.9387 21.7123 25.5964 21.7123 27.6273Z" fill="white"/>
<path d="M51.3687 0.769226V19.3168C53.4653 17.2261 55.8416 16.1807 58.4974 16.1807C61.557 16.1807 64.1041 17.2783 66.1386 19.4736C68.1732 21.6539 69.1905 24.3718 69.1905 27.6273C69.1905 30.9874 68.1654 33.7651 66.1153 35.9603C64.0808 38.1406 61.5104 39.2308 58.4042 39.2308C55.7795 39.2308 53.4343 38.2601 51.3687 36.3187V38.6036H46.127V0.769226H51.3687ZM63.8323 27.8513C63.8323 25.7606 63.2421 24.0582 62.0617 22.744C60.8659 21.4 59.3671 20.728 57.5655 20.728C55.6397 20.728 54.0711 21.3776 52.8596 22.6768C51.6638 23.9611 51.0658 25.6337 51.0658 27.6945C51.0658 29.8151 51.656 31.5101 52.8363 32.7794C54.0167 34.0787 55.5698 34.7283 57.4956 34.7283C59.3128 34.7283 60.8193 34.0787 62.0151 32.7794C63.2266 31.4653 63.8323 29.8226 63.8323 27.8513Z" fill="white"/>
<path d="M73.6634 27.5377C73.6634 24.3867 74.836 21.7062 77.1811 19.496C79.5263 17.2858 82.384 16.1807 85.7542 16.1807C89.14 16.1807 92.0132 17.2933 94.3739 19.5184C96.7036 21.7435 97.8684 24.4763 97.8684 27.7169C97.8684 30.9874 96.6958 33.7277 94.3506 35.9379C91.9899 38.1331 89.0934 39.2308 85.661 39.2308C82.2598 39.2308 79.4098 38.1107 77.1112 35.8707C74.8127 33.6605 73.6634 30.8829 73.6634 27.5377ZM79.0216 27.6273C79.0216 29.8077 79.6273 31.5325 80.8387 32.8018C82.0812 34.0861 83.7197 34.7283 85.7542 34.7283C87.8043 34.7283 89.4428 34.0936 90.6698 32.8242C91.8967 31.5549 92.5102 29.8599 92.5102 27.7393C92.5102 25.6188 91.8967 23.9238 90.6698 22.6544C89.4273 21.3702 87.7888 20.728 85.7542 20.728C83.7507 20.728 82.1277 21.3702 80.8853 22.6544C79.6428 23.9387 79.0216 25.5964 79.0216 27.6273Z" fill="white"/>
<path d="M109.121 21.4896V38.6036H103.879V21.4896H101.642V16.7855H103.879V8.78858H109.121V16.7855H113.197V21.4896H109.121Z" fill="white"/>
</svg>
